<svg width="38" height="32" viewBox="0 0 38 32" fill="none" xmlns="http://www.w3.org/2000/svg">
<path d="M14.5273 20.8804C14.1914 20.8804 13.8556 20.7762 13.5904 20.553C12.1409 19.3324 11.3454 17.7098 11.3454 15.998C11.3454 12.4404 14.7748 9.55267 18.9997 9.55267C21.0326 9.55267 22.9595 10.2225 24.409 11.4431C24.6565 11.6515 24.7979 11.9343 24.7979 12.232C24.7979 12.5298 24.6565 12.8126 24.409 13.021L15.4642 20.553C15.1991 20.7762 14.8632 20.8804 14.5273 20.8804ZM18.9997 11.7855C16.242 11.7855 13.997 13.6759 13.997 15.998C13.997 16.7423 14.2268 17.4568 14.6511 18.082L21.4745 12.3362C20.7321 11.979 19.8836 11.7855 18.9997 11.7855Z" fill="#075069"/>
<path d="M7.68599 25.6886C7.38547 25.6886 7.06728 25.5993 6.81979 25.4207C4.9283 24.0661 3.23126 22.3989 1.7817 20.4638C-0.092111 18.0077 -0.092111 14.0036 1.7817 11.5325C6.09501 5.84632 12.3705 2.57153 18.9995 2.57153C22.8886 2.57153 26.7246 3.70282 30.0833 5.83144C30.6667 6.20357 30.7904 6.90319 30.3485 7.39441C29.9065 7.88562 29.0757 7.98982 28.4923 7.61769C25.5932 5.7719 22.3052 4.80434 18.9995 4.80434C13.2898 4.80434 7.82741 7.69211 4.00907 12.7383C2.68326 14.4799 2.68326 17.5165 4.00907 19.2581C5.33488 20.9997 6.85515 22.5031 8.53451 23.7237C9.08251 24.1256 9.15322 24.8252 8.67593 25.3016C8.42844 25.5546 8.05722 25.6886 7.68599 25.6886Z" fill="#075069"/>
<path d="M19.0009 29.4248C16.6498 29.4248 14.3516 29.0229 12.142 28.234C11.4702 27.9958 11.152 27.3409 11.4349 26.7752C11.7177 26.2096 12.4955 25.9416 13.1672 26.1798C15.0411 26.8496 17.0034 27.192 18.9832 27.192C24.6931 27.192 30.1554 24.3042 33.9738 19.2581C35.2996 17.5165 35.2996 14.4799 33.9738 12.7383C33.4258 12.0089 32.8245 11.3093 32.1883 10.6543C31.7287 10.178 31.8171 9.47836 32.3828 9.07646C32.9485 8.68944 33.7791 8.74898 34.2566 9.2402C34.946 9.9547 35.6178 10.7287 36.2188 11.5325C38.0926 13.9886 38.0926 17.9928 36.2188 20.4638C31.9055 26.15 25.63 29.4248 19.0009 29.4248Z" fill="#075069"/>
<path d="M20.2189 22.3544C19.6002 22.3544 19.0345 21.9823 18.9108 21.4464C18.7693 20.8361 19.2466 20.2556 19.9714 20.1514C21.9159 19.8537 23.5423 18.4842 23.8958 16.8468C24.0372 16.2365 24.7267 15.8495 25.4514 15.9537C26.1762 16.0728 26.6535 16.6533 26.5121 17.2636C25.9464 19.8388 23.5069 21.8781 20.4664 22.3544C20.378 22.3395 20.3073 22.3544 20.2189 22.3544Z" fill="#075069"/>
<path d="M1.32139 32C0.985521 32 0.649648 31.8958 0.384486 31.6725C-0.128162 31.2408 -0.128162 30.5263 0.384486 30.0946L13.5896 18.9752C14.1022 18.5436 14.9507 18.5436 15.4634 18.9752C15.9761 19.4069 15.9761 20.1214 15.4634 20.5531L2.2583 31.6725C1.99314 31.8958 1.65727 32 1.32139 32Z" fill="#075069"/>
<path d="M23.4735 13.3484C23.1377 13.3484 22.8018 13.2442 22.5366 13.021C22.024 12.5893 22.024 11.8748 22.5366 11.4432L35.7417 0.323758C36.2544 -0.107919 37.1029 -0.107919 37.6155 0.323758C38.1282 0.755434 38.1282 1.46993 37.6155 1.90161L24.4104 13.021C24.1453 13.2442 23.8094 13.3484 23.4735 13.3484Z" fill="#075069"/>
</svg>
