<svg width="42" height="34" viewBox="0 0 42 34" fill="none" xmlns="http://www.w3.org/2000/svg">
<path d="M15.2332 20.6163C14.4759 19.5831 14.0487 18.3323 14.0487 16.9909C14.0487 13.4018 17.1555 10.5016 21.0002 10.5016C24.8448 10.5016 27.9516 13.4018 27.9516 16.9909C27.9516 20.5801 24.8448 23.4804 21.0002 23.4804" stroke="#075069" stroke-width="2.86246" stroke-linecap="round" stroke-linejoin="round"/>
<path d="M31.7961 5.35347C28.5145 3.17825 24.8252 2 21 2C14.1457 2 7.75729 5.77039 3.31068 12.2961C1.56311 14.852 1.56311 19.1481 3.31068 21.7039C7.75729 28.2296 14.1457 32 21 32C27.8543 32 34.2427 28.2296 38.6893 21.7039C40.4369 19.1481 40.4369 14.852 38.6893 12.2961" stroke="#075069" stroke-width="2.86246" stroke-linecap="round" stroke-linejoin="round"/>
</svg>
