<?xml version="1.0" standalone="no"?>
<!DOCTYPE svg PUBLIC "-//W3C//DTD SVG 20010904//EN"
 "http://www.w3.org/TR/2001/REC-SVG-20010904/DTD/svg10.dtd">
<svg version="1.0" xmlns="http://www.w3.org/2000/svg"
 width="1540.000000pt" height="3254.000000pt" viewBox="0 0 1540.000000 3254.000000"
 preserveAspectRatio="xMidYMid meet">

<g transform="translate(0.000000,3254.000000) scale(0.100000,-0.100000)"
fill="#000000" stroke="none">
<path d="M0 16270 l0 -16270 7700 0 7700 0 0 16270 0 16270 -7700 0 -7700 0 0
-16270z m13276 -13536 c68 -42 107 -117 102 -196 -12 -168 -191 -261 -334
-172 -68 42 -107 117 -102 196 12 168 191 261 334 172z m-186 -748 c0 -230 2
-236 70 -236 68 0 70 6 70 236 0 191 1 204 18 204 39 0 116 -31 431 -171 350
-155 361 -162 361 -236 0 -62 -32 -82 -370 -231 -174 -77 -340 -147 -370 -156
-70 -21 -210 -21 -281 0 -30 9 -196 79 -369 156 -337 149 -370 170 -370 231 0
74 11 81 361 236 327 146 386 169 427 170 l22 1 0 -204z m-442 -545 c186 -82
357 -155 382 -162 58 -16 202 -16 260 0 25 7 197 80 383 163 272 120 341 147
353 137 19 -15 18 -101 -1 -138 -16 -32 -13 -31 -406 -205 -356 -157 -416
-172 -563 -141 -56 12 -410 161 -704 298 -24 11 -49 32 -57 48 -25 48 -16 149
13 149 2 0 155 -67 340 -149z"/>
<path d="M12553 1845 c-34 -15 -58 -48 -49 -71 3 -8 20 -23 38 -34 64 -39 191
-17 204 36 16 63 -106 107 -193 69z"/>
</g>
</svg>
