<?xml version="1.0" standalone="no"?>
<!DOCTYPE svg PUBLIC "-//W3C//DTD SVG 20010904//EN"
 "http://www.w3.org/TR/2001/REC-SVG-20010904/DTD/svg10.dtd">
<svg version="1.0" xmlns="http://www.w3.org/2000/svg"
 width="1602.000000pt" height="350.000000pt" viewBox="0 0 1602.000000 350.000000"
 preserveAspectRatio="xMidYMid meet">

<g transform="translate(0.000000,350.000000) scale(0.100000,-0.100000)"
fill="#000000" stroke="none">
<path d="M0 1750 l0 -1750 8010 0 8010 0 0 1750 0 1750 -8010 0 -8010 0 0
-1750z m5036 844 c68 -42 107 -117 102 -196 -12 -168 -191 -261 -334 -172 -68
42 -107 117 -102 196 12 168 191 261 334 172z m2584 -434 l0 -50 -225 0 -225
0 0 -155 0 -155 208 -2 207 -3 3 -47 3 -48 -210 0 -211 0 0 -160 0 -160 225 0
225 0 0 -50 0 -50 -285 0 -285 0 0 465 0 465 285 0 285 0 0 -50z m-2770 -314
c0 -230 2 -236 70 -236 68 0 70 6 70 236 0 191 1 204 18 204 39 0 116 -31 431
-171 350 -155 361 -162 361 -236 0 -62 -32 -82 -370 -231 -174 -77 -340 -147
-370 -156 -70 -21 -210 -21 -281 0 -30 9 -196 79 -369 156 -337 149 -370 170
-370 231 0 74 11 81 361 236 327 146 386 169 427 170 l22 1 0 -204z m3346 120
c33 -15 59 -36 73 -59 l22 -35 47 47 c65 65 145 85 237 60 52 -15 119 -82 134
-134 7 -25 11 -141 11 -302 l0 -263 -55 0 -54 0 -3 271 -3 271 -32 28 c-60 54
-150 52 -211 -5 l-37 -33 -3 -266 -3 -266 -54 0 -55 0 0 248 c0 285 -7 314
-75 346 -77 37 -165 3 -204 -77 -19 -40 -21 -61 -21 -280 l0 -237 -55 0 -55 0
0 350 0 350 55 0 55 0 0 -57 0 -58 19 30 c55 90 165 119 267 71z m1169 -11
c59 -29 103 -77 138 -152 19 -41 22 -65 22 -173 0 -117 -2 -129 -29 -187 -32
-69 -95 -135 -153 -160 -45 -18 -146 -20 -195 -4 -22 7 -54 31 -77 57 -21 24
-41 44 -45 44 -3 0 -6 -81 -6 -180 l0 -180 -50 0 -50 0 0 480 0 480 50 0 50 0
0 -55 c0 -30 4 -55 8 -55 4 0 16 13 25 30 53 89 193 114 312 55z m683 -21 l3
-52 -73 -3 c-56 -3 -81 -9 -106 -27 -63 -46 -67 -61 -70 -329 l-3 -243 -50 0
-49 0 0 350 0 350 50 0 50 0 0 -52 0 -53 32 39 c42 51 99 77 163 74 l50 -3 3
-51z m508 27 c110 -49 165 -139 172 -283 l4 -88 -251 0 -251 0 0 -22 c0 -44
21 -99 52 -134 82 -93 219 -97 305 -9 40 43 43 44 80 33 52 -14 57 -21 40 -54
-23 -44 -76 -91 -131 -114 -71 -32 -196 -31 -268 2 -77 36 -113 71 -150 146
-29 58 -33 77 -36 166 -4 111 13 183 62 257 76 115 239 158 372 100z m677 15
c63 -19 102 -49 133 -103 30 -50 27 -57 -33 -68 -29 -5 -37 -1 -76 40 -43 44
-45 45 -106 45 -78 0 -124 -21 -145 -65 -34 -71 10 -112 161 -149 182 -44 237
-96 231 -212 -7 -126 -105 -197 -273 -196 -114 1 -199 41 -235 112 -28 55 -26
68 18 79 54 16 57 15 75 -25 55 -115 307 -86 307 36 0 54 -34 78 -156 109
-130 33 -189 62 -222 111 -20 30 -23 44 -20 101 3 54 9 73 31 103 61 80 197
116 310 82z m729 -14 c53 -23 103 -79 117 -129 6 -22 11 -147 11 -295 l0 -258
-55 0 -55 0 0 46 0 46 -26 -32 c-44 -52 -98 -74 -184 -74 -95 0 -166 33 -207
96 -24 36 -28 52 -28 114 0 81 15 111 75 151 43 30 82 40 215 59 155 21 159
23 153 85 -7 71 -46 110 -117 117 -80 7 -117 -4 -168 -54 l-47 -44 -48 16 -48
16 22 40 c62 109 256 159 390 100z m-7554 -661 c186 -82 357 -155 382 -162 58
-16 202 -16 260 0 25 7 197 80 383 163 272 120 341 147 353 137 19 -15 18
-101 -1 -138 -16 -32 -13 -31 -406 -205 -356 -157 -416 -172 -563 -141 -56 12
-410 161 -704 298 -24 11 -49 32 -57 48 -25 48 -16 149 13 149 2 0 155 -67
340 -149z"/>
<path d="M4313 1705 c-34 -15 -58 -48 -49 -71 3 -8 20 -23 38 -34 64 -39 191
-17 204 36 16 63 -106 107 -193 69z"/>
<path d="M9145 1877 c-40 -19 -90 -76 -106 -124 -7 -21 -14 -79 -14 -129 0
-81 3 -96 30 -149 17 -34 44 -69 63 -81 93 -63 218 -27 275 80 19 35 22 57 22
151 0 96 -3 116 -24 158 -32 65 -85 100 -159 104 -34 2 -69 -2 -87 -10z"/>
<path d="M10341 1867 c-52 -27 -99 -89 -108 -140 l-6 -37 198 0 198 0 -6 41
c-17 126 -162 197 -276 136z"/>
<path d="M11949 1615 c-3 -2 -51 -11 -108 -20 -56 -8 -117 -21 -135 -29 -90
-38 -88 -153 4 -190 99 -39 220 3 256 91 19 43 19 153 1 153 -8 0 -16 -2 -18
-5z"/>
</g>
</svg>
