<svg width="41" height="41" viewBox="0 0 41 41" fill="none" xmlns="http://www.w3.org/2000/svg">
<path d="M32.3842 22.0841C32.4508 21.5841 32.4842 21.0674 32.4842 20.5174C32.4842 19.9841 32.4508 19.4507 32.3675 18.9507L35.7508 16.3174C36.0508 16.0841 36.1342 15.6341 35.9508 15.3007L32.7508 9.7674C32.5508 9.40073 32.1342 9.28406 31.7675 9.40073L27.7842 11.0007C26.9508 10.3674 26.0675 9.83406 25.0842 9.43406L24.4842 5.20073C24.4175 4.80073 24.0842 4.5174 23.6842 4.5174H17.2842C16.8842 4.5174 16.5675 4.80073 16.5008 5.20073L15.9008 9.43406C14.9175 9.83406 14.0175 10.3841 13.2008 11.0007L9.2175 9.40073C8.85084 9.26739 8.43417 9.40073 8.23417 9.7674L5.05084 15.3007C4.85084 15.6507 4.9175 16.0841 5.25084 16.3174L8.63417 18.9507C8.55084 19.4507 8.48417 20.0007 8.48417 20.5174C8.48417 21.0341 8.5175 21.5841 8.60084 22.0841L5.2175 24.7174C4.9175 24.9507 4.83417 25.4007 5.0175 25.7341L8.2175 31.2674C8.4175 31.6341 8.83417 31.7507 9.20084 31.6341L13.1842 30.0341C14.0175 30.6674 14.9008 31.2007 15.8842 31.6007L16.4842 35.8341C16.5675 36.2341 16.8842 36.5174 17.2842 36.5174H23.6842C24.0842 36.5174 24.4175 36.2341 24.4675 35.8341L25.0675 31.6007C26.0508 31.2007 26.9508 30.6674 27.7675 30.0341L31.7508 31.6341C32.1175 31.7674 32.5342 31.6341 32.7342 31.2674L35.9342 25.7341C36.1342 25.3674 36.0508 24.9507 35.7342 24.7174L32.3842 22.0841ZM20.4842 26.5174C17.1842 26.5174 14.4842 23.8174 14.4842 20.5174C14.4842 17.2174 17.1842 14.5174 20.4842 14.5174C23.7842 14.5174 26.4842 17.2174 26.4842 20.5174C26.4842 23.8174 23.7842 26.5174 20.4842 26.5174Z" fill="white"/>
</svg>
