<?xml version="1.0" standalone="no"?>
<!DOCTYPE svg PUBLIC "-//W3C//DTD SVG 20010904//EN"
 "http://www.w3.org/TR/2001/REC-SVG-20010904/DTD/svg10.dtd">
<svg version="1.0" xmlns="http://www.w3.org/2000/svg"
 width="2364.000000pt" height="2364.000000pt" viewBox="0 0 2364.000000 2364.000000"
 preserveAspectRatio="xMidYMid meet">

<g transform="translate(0.000000,2364.000000) scale(0.100000,-0.100000)"
fill="#000000" stroke="none">
<path d="M0 11820 l0 -11820 11820 0 11820 0 0 11820 0 11820 -11820 0 -11820
0 0 -11820z m11980 4310 c0 -5 25 -10 55 -10 30 0 55 -4 55 -9 0 -5 20 -12 45
-15 25 -4 45 -11 45 -17 0 -5 11 -9 25 -9 14 0 25 -4 25 -10 0 -5 9 -10 20
-10 11 0 20 -4 20 -10 0 -5 9 -10 20 -10 25 0 64 -21 105 -57 7 -7 18 -13 24
-13 6 0 11 -4 11 -10 0 -5 7 -10 16 -10 9 0 36 -20 60 -45 23 -25 45 -45 49
-45 8 0 55 -47 55 -55 0 -4 20 -26 45 -49 25 -24 45 -51 45 -60 0 -9 5 -16 10
-16 6 0 10 -5 10 -10 0 -10 8 -22 38 -55 6 -7 12 -21 12 -29 0 -9 5 -16 10
-16 6 0 10 -11 10 -25 0 -14 5 -25 10 -25 6 0 10 -9 10 -20 0 -11 5 -20 10
-20 6 0 10 -11 10 -25 0 -14 4 -25 9 -25 6 0 13 -20 17 -45 3 -25 10 -45 15
-45 5 0 9 -25 9 -55 0 -30 5 -55 10 -55 6 0 10 -60 10 -160 0 -100 -4 -160
-10 -160 -5 0 -10 -25 -10 -55 0 -30 -4 -55 -10 -55 -5 0 -10 -10 -10 -22 -1
-13 -7 -34 -15 -48 -8 -14 -14 -35 -15 -47 0 -13 -4 -23 -10 -23 -5 0 -10 -9
-10 -20 0 -11 -4 -20 -10 -20 -5 0 -10 -11 -10 -25 0 -14 -4 -25 -10 -25 -5 0
-10 -7 -10 -15 0 -15 -6 -25 -37 -60 -7 -7 -13 -18 -13 -24 0 -6 -4 -11 -10
-11 -5 0 -10 -7 -10 -16 0 -9 -20 -36 -45 -60 -25 -23 -45 -45 -45 -49 0 -8
-47 -55 -55 -55 -4 0 -26 -20 -49 -45 -24 -25 -51 -45 -60 -45 -9 0 -16 -4
-16 -10 0 -5 -5 -10 -10 -10 -10 0 -22 -8 -55 -37 -7 -7 -21 -13 -29 -13 -9 0
-16 -4 -16 -10 0 -5 -11 -10 -25 -10 -14 0 -25 -4 -25 -10 0 -5 -9 -10 -20
-10 -11 0 -20 -4 -20 -10 0 -5 -10 -10 -22 -10 -13 -1 -34 -7 -48 -15 -14 -8
-35 -14 -47 -15 -13 0 -23 -4 -23 -10 0 -5 -25 -10 -55 -10 -30 0 -55 -4 -55
-10 0 -6 -60 -10 -160 -10 -100 0 -160 4 -160 10 0 6 -25 10 -55 10 -30 0 -55
4 -55 9 0 5 -20 12 -45 15 -25 4 -45 11 -45 17 0 5 -11 9 -25 9 -14 0 -25 5
-25 10 0 6 -9 10 -20 10 -11 0 -20 5 -20 10 0 6 -11 10 -25 10 -14 0 -25 5
-25 10 0 6 -7 10 -16 10 -8 0 -22 6 -29 13 -33 29 -45 37 -55 37 -5 0 -10 4
-10 9 0 5 -9 13 -21 16 -11 4 -40 26 -63 48 -23 23 -55 51 -69 62 -15 11 -27
23 -27 28 0 5 -20 28 -45 51 -25 24 -45 51 -45 60 0 9 -4 16 -10 16 -5 0 -10
5 -10 10 0 6 -6 18 -12 26 -43 50 -58 78 -58 104 0 11 -4 20 -10 20 -5 0 -10
9 -10 20 0 11 -4 20 -10 20 -5 0 -10 11 -10 25 0 14 -4 25 -9 25 -6 0 -13 20
-17 45 -3 25 -10 45 -15 45 -5 0 -9 25 -9 55 0 30 -4 55 -10 55 -6 0 -10 60
-10 160 0 100 4 160 10 160 6 0 10 25 10 55 0 30 4 55 9 55 5 0 12 20 15 45 4
25 11 45 17 45 5 0 9 11 9 25 0 14 5 25 10 25 6 0 10 9 10 20 0 11 5 20 10 20
6 0 10 9 10 20 0 25 21 64 58 105 6 7 12 18 12 24 0 6 5 11 10 11 6 0 10 7 10
16 0 9 20 36 45 60 25 23 45 45 45 49 0 3 11 17 25 30 13 14 27 25 30 25 4 0
26 20 49 45 24 25 51 45 60 45 9 0 16 5 16 10 0 6 5 10 11 10 6 0 17 6 24 13
41 36 80 57 105 57 11 0 20 5 20 10 0 6 9 10 20 10 11 0 20 5 20 10 0 6 11 10
25 10 14 0 25 4 25 9 0 6 20 13 45 17 25 3 45 10 45 15 0 5 25 9 55 9 30 0 55
5 55 10 0 6 60 10 160 10 100 0 160 -4 160 -10z m-520 -3820 c0 -579 4 -1000
9 -1000 5 0 11 -10 15 -23 8 -35 86 -111 134 -132 23 -10 42 -22 42 -27 0 -4
16 -8 35 -8 19 0 35 -4 35 -10 0 -6 37 -10 90 -10 53 0 90 4 90 10 0 6 16 10
35 10 19 0 35 4 35 8 0 5 19 17 43 27 47 21 125 97 133 132 4 13 10 23 15 23
5 0 9 422 9 1001 l0 1002 52 -7 c28 -4 59 -11 69 -17 10 -5 36 -9 58 -9 23 0
41 -4 41 -10 0 -5 20 -10 45 -10 25 0 45 -4 45 -10 0 -5 15 -10 34 -10 19 0
37 -4 40 -9 4 -5 24 -12 46 -16 22 -4 40 -11 40 -16 0 -5 16 -9 35 -9 19 0 35
-4 35 -10 0 -5 11 -10 25 -10 14 0 25 -4 25 -10 0 -5 6 -10 14 -10 19 0 140
-52 144 -62 2 -4 17 -8 33 -8 16 0 29 -4 29 -10 0 -5 9 -10 20 -10 11 0 20 -4
20 -8 0 -4 23 -16 50 -27 28 -11 50 -23 50 -27 0 -4 14 -8 30 -8 17 0 30 -4
30 -10 0 -5 6 -10 12 -10 16 0 122 -53 126 -62 2 -5 17 -8 33 -8 16 0 29 -4
29 -10 0 -5 11 -10 25 -10 14 0 25 -4 25 -8 0 -5 20 -17 45 -28 25 -10 45 -22
45 -26 0 -4 14 -8 30 -8 17 0 30 -4 30 -10 0 -5 11 -10 25 -10 14 0 25 -4 25
-8 0 -4 23 -16 50 -27 28 -11 50 -23 50 -27 0 -4 14 -8 30 -8 17 0 30 -4 30
-10 0 -5 9 -10 20 -10 11 0 20 -4 20 -8 0 -4 23 -16 50 -27 28 -11 50 -23 50
-27 0 -4 14 -8 30 -8 17 0 30 -4 30 -10 0 -5 6 -10 12 -10 16 0 122 -53 126
-62 2 -5 17 -8 33 -8 16 0 29 -4 29 -10 0 -5 11 -10 25 -10 14 0 25 -4 25 -8
0 -5 20 -17 45 -28 25 -10 45 -22 45 -26 0 -4 14 -8 30 -8 17 0 30 -4 30 -10
0 -5 11 -10 25 -10 14 0 25 -4 25 -8 0 -4 23 -16 50 -27 28 -11 50 -23 50 -27
0 -4 14 -8 30 -8 17 0 30 -4 30 -10 0 -5 9 -10 20 -10 11 0 20 -4 20 -8 0 -4
23 -16 50 -27 28 -11 50 -23 50 -27 0 -4 14 -8 30 -8 17 0 30 -4 30 -10 0 -5
6 -10 12 -10 16 0 122 -53 126 -62 2 -5 17 -8 33 -8 16 0 29 -4 29 -10 0 -5
11 -10 25 -10 14 0 25 -4 25 -8 0 -5 20 -17 45 -28 25 -10 45 -22 45 -26 0 -4
14 -8 30 -8 17 0 30 -4 30 -10 0 -5 11 -10 25 -10 14 0 25 -4 25 -8 0 -4 23
-16 50 -27 28 -11 50 -23 50 -27 0 -4 14 -8 30 -8 17 0 30 -4 30 -10 0 -5 9
-10 20 -10 11 0 20 -4 20 -8 0 -4 23 -16 50 -27 28 -11 50 -23 50 -27 0 -4 14
-8 30 -8 17 0 30 -4 30 -10 0 -5 6 -10 12 -10 16 0 122 -53 126 -62 2 -5 16
-8 32 -8 16 0 30 -3 32 -7 2 -5 19 -16 38 -25 54 -28 69 -39 132 -100 32 -31
58 -64 58 -73 0 -8 5 -15 10 -15 6 0 10 -5 10 -11 0 -6 7 -17 15 -25 8 -9 15
-24 15 -34 0 -10 5 -22 10 -25 6 -3 10 -19 10 -36 0 -16 5 -29 10 -29 6 0 10
-45 10 -115 0 -70 -4 -115 -10 -115 -5 0 -10 -15 -10 -32 0 -18 -11 -53 -25
-77 -14 -23 -25 -48 -25 -55 0 -6 -9 -18 -20 -26 -11 -8 -20 -19 -20 -25 -1
-14 -57 -75 -70 -75 -6 0 -24 -13 -40 -30 -16 -16 -40 -32 -54 -36 -14 -3 -26
-10 -26 -15 0 -5 -9 -9 -20 -9 -11 0 -20 -4 -20 -10 0 -5 -7 -10 -15 -10 -18
0 -89 -32 -93 -42 -2 -5 -15 -8 -28 -8 -13 0 -24 -4 -24 -10 0 -5 -9 -10 -20
-10 -11 0 -20 -4 -20 -10 0 -5 -7 -10 -17 -10 -22 0 -93 -32 -93 -42 0 -4 -11
-8 -25 -8 -14 0 -25 -4 -25 -10 0 -5 -11 -10 -25 -10 -14 0 -25 -4 -25 -10 0
-5 -8 -10 -17 -10 -10 0 -38 -11 -62 -25 -23 -14 -49 -25 -57 -25 -8 0 -14 -4
-14 -10 0 -5 -11 -10 -25 -10 -14 0 -25 -4 -25 -10 0 -5 -7 -10 -15 -10 -18 0
-89 -32 -93 -42 -2 -5 -12 -8 -23 -8 -10 0 -19 -4 -19 -10 0 -5 -11 -10 -25
-10 -14 0 -25 -4 -25 -10 0 -5 -7 -10 -15 -10 -18 0 -89 -32 -93 -42 -2 -5
-15 -8 -28 -8 -13 0 -24 -4 -24 -10 0 -5 -9 -10 -20 -10 -11 0 -20 -4 -20 -10
0 -5 -9 -10 -19 -10 -11 0 -41 -11 -67 -25 -26 -14 -53 -25 -60 -25 -8 0 -14
-4 -14 -10 0 -5 -11 -10 -25 -10 -14 0 -25 -4 -25 -10 0 -5 -8 -10 -17 -10
-10 0 -38 -11 -62 -25 -23 -14 -49 -25 -57 -25 -8 0 -14 -4 -14 -10 0 -5 -11
-10 -25 -10 -14 0 -25 -4 -25 -10 0 -5 -7 -10 -15 -10 -18 0 -89 -32 -93 -42
-2 -5 -12 -8 -23 -8 -10 0 -19 -4 -19 -10 0 -5 -11 -10 -25 -10 -14 0 -25 -4
-25 -10 0 -5 -7 -10 -15 -10 -18 0 -89 -32 -93 -42 -2 -5 -15 -8 -28 -8 -13 0
-24 -4 -24 -10 0 -5 -9 -10 -20 -10 -11 0 -20 -4 -20 -10 0 -5 -7 -10 -17 -10
-22 0 -93 -32 -93 -42 0 -4 -11 -8 -25 -8 -14 0 -25 -4 -25 -10 0 -5 -11 -10
-25 -10 -14 0 -25 -4 -25 -10 0 -5 -7 -10 -15 -10 -18 0 -89 -32 -93 -42 -2
-5 -12 -8 -23 -8 -10 0 -19 -4 -19 -10 0 -5 -11 -10 -25 -10 -14 0 -25 -4 -25
-10 0 -5 -7 -10 -15 -10 -18 0 -89 -32 -93 -42 -2 -5 -12 -8 -23 -8 -10 0 -19
-4 -19 -10 0 -5 -16 -10 -35 -10 -19 0 -35 -4 -35 -9 0 -5 -20 -17 -45 -28
-25 -10 -45 -21 -45 -25 0 -5 -11 -8 -25 -8 -14 0 -25 -4 -25 -10 0 -5 -9 -10
-20 -10 -11 0 -20 -4 -20 -10 0 -5 -9 -10 -19 -10 -11 0 -41 -11 -67 -25 -26
-14 -53 -25 -60 -25 -8 0 -14 -4 -14 -10 0 -5 -11 -10 -25 -10 -14 0 -25 -4
-25 -10 0 -5 -7 -10 -15 -10 -18 0 -89 -32 -93 -42 -2 -5 -17 -8 -33 -8 -16 0
-29 -4 -29 -10 0 -5 -11 -10 -25 -10 -14 0 -25 -4 -25 -8 0 -4 -29 -17 -65
-27 -36 -11 -65 -23 -65 -27 0 -5 -16 -8 -35 -8 -19 0 -35 -4 -35 -10 0 -5
-20 -10 -45 -10 -25 0 -45 -4 -45 -9 0 -5 -17 -11 -37 -14 -44 -6 -124 -24
-169 -38 -17 -5 -58 -9 -92 -9 -35 0 -62 -4 -62 -10 0 -6 -97 -10 -270 -10
-173 0 -270 4 -270 10 0 6 -27 10 -62 10 -34 0 -75 4 -92 9 -45 14 -125 32
-168 38 -21 3 -38 9 -38 14 0 5 -20 9 -45 9 -25 0 -45 5 -45 10 0 6 -16 10
-35 10 -19 0 -35 3 -35 8 0 4 -29 16 -65 27 -36 10 -65 23 -65 27 0 4 -16 8
-35 8 -19 0 -35 5 -35 10 0 6 -9 10 -20 10 -11 0 -20 4 -20 8 0 4 -22 16 -50
27 -27 11 -50 23 -50 27 0 4 -13 8 -30 8 -16 0 -30 5 -30 10 0 6 -6 10 -12 10
-16 0 -122 53 -126 63 -2 4 -17 7 -33 7 -16 0 -29 5 -29 10 0 6 -11 10 -25 10
-14 0 -25 3 -25 8 0 4 -20 16 -45 27 -25 11 -45 23 -45 27 0 5 -13 8 -30 8
-16 0 -30 5 -30 10 0 6 -11 10 -25 10 -14 0 -25 4 -25 8 0 4 -22 16 -50 27
-27 11 -50 23 -50 27 0 4 -13 8 -30 8 -16 0 -30 5 -30 10 0 6 -9 10 -20 10
-11 0 -20 4 -20 8 0 4 -22 16 -50 27 -27 11 -50 23 -50 27 0 4 -13 8 -30 8
-16 0 -30 5 -30 10 0 6 -6 10 -12 10 -16 0 -122 53 -126 63 -2 4 -17 7 -33 7
-16 0 -29 5 -29 10 0 6 -11 10 -25 10 -14 0 -25 3 -25 8 0 4 -20 16 -45 27
-25 11 -45 23 -45 27 0 5 -13 8 -30 8 -16 0 -30 5 -30 10 0 6 -11 10 -25 10
-14 0 -25 4 -25 8 0 4 -22 16 -50 27 -27 11 -50 23 -50 27 0 4 -13 8 -30 8
-16 0 -30 5 -30 10 0 6 -6 10 -14 10 -8 0 -34 11 -57 25 -24 14 -52 25 -61 25
-10 0 -18 5 -18 10 0 6 -11 10 -25 10 -14 0 -25 5 -25 10 0 6 -6 10 -12 10
-16 0 -122 53 -126 63 -2 4 -17 7 -33 7 -16 0 -29 5 -29 10 0 6 -11 10 -25 10
-14 0 -25 3 -25 8 0 4 -20 16 -45 27 -25 11 -45 23 -45 27 0 5 -13 8 -30 8
-16 0 -30 5 -30 10 0 6 -11 10 -25 10 -14 0 -25 4 -25 8 0 4 -22 16 -50 27
-27 11 -50 23 -50 27 0 4 -13 8 -30 8 -16 0 -30 5 -30 10 0 6 -9 10 -20 10
-11 0 -20 4 -20 8 0 4 -22 16 -50 27 -27 11 -50 23 -50 27 0 4 -13 8 -30 8
-16 0 -30 5 -30 10 0 6 -6 10 -12 10 -16 0 -122 53 -126 63 -2 4 -17 7 -33 7
-16 0 -29 5 -29 10 0 6 -11 10 -25 10 -14 0 -25 3 -25 8 0 4 -20 16 -45 27
-25 11 -45 23 -45 27 0 5 -13 8 -30 8 -16 0 -30 5 -30 10 0 6 -7 10 -15 10 -8
0 -15 5 -15 10 0 6 -8 10 -19 10 -10 0 -27 11 -37 25 -10 14 -24 25 -32 25
-14 0 -71 60 -72 75 0 6 -9 17 -20 25 -11 8 -20 20 -20 26 0 7 -11 32 -25 55
-14 24 -25 54 -25 67 0 12 -4 22 -10 22 -6 0 -10 48 -10 125 0 77 4 125 10
125 6 0 10 13 10 29 0 17 5 33 10 36 6 3 10 15 10 25 0 10 7 25 15 34 8 8 15
19 15 25 0 6 5 11 10 11 6 0 10 7 10 15 0 15 92 115 105 115 3 0 18 11 33 25
15 14 42 31 60 37 17 7 32 16 32 20 0 4 13 8 29 8 16 0 31 3 33 8 5 12 117 62
138 62 11 0 20 5 20 10 0 6 9 10 20 10 11 0 20 5 20 10 0 6 5 10 10 10 6 0 33
11 62 25 28 14 60 25 70 25 10 0 18 5 18 10 0 6 11 10 25 10 14 0 25 4 25 9 0
10 114 61 136 61 8 0 14 5 14 10 0 6 11 10 24 10 13 0 26 4 28 8 4 11 115 62
133 62 8 0 15 5 15 10 0 6 11 10 24 10 13 0 26 3 28 8 5 12 117 62 138 62 11
0 20 5 20 10 0 6 9 10 20 10 11 0 20 5 20 10 0 6 11 10 25 10 14 0 25 4 25 8
0 10 71 42 93 42 10 0 17 5 17 10 0 6 11 10 25 10 14 0 25 5 25 10 0 6 7 10
16 10 8 0 22 6 29 14 8 7 34 20 59 27 26 7 46 17 46 21 0 4 11 8 25 8 14 0 25
5 25 10 0 6 9 10 19 10 11 0 21 3 23 8 4 10 75 42 93 42 8 0 15 5 15 10 0 6
11 10 25 10 14 0 25 5 25 10 0 6 6 10 14 10 8 0 34 11 57 25 24 14 54 25 67
25 12 0 22 5 22 10 0 6 9 10 20 10 11 0 20 5 20 10 0 6 11 10 25 10 14 0 25 4
25 8 0 10 71 42 93 42 10 0 17 5 17 10 0 6 11 10 25 10 14 0 25 5 25 10 0 6 7
10 16 10 8 0 22 6 29 14 8 7 34 20 59 27 26 7 46 17 46 21 0 4 11 8 25 8 14 0
25 5 25 10 0 6 9 10 19 10 11 0 21 3 23 8 4 10 75 42 93 42 8 0 15 5 15 10 0
6 11 10 25 10 14 0 25 5 25 10 0 6 6 10 14 10 8 0 34 11 57 25 24 14 54 25 67
25 12 0 22 5 22 10 0 6 9 10 20 10 11 0 20 5 20 10 0 6 11 10 25 10 14 0 25 4
25 8 0 10 71 42 93 42 10 0 17 5 17 10 0 6 11 10 25 10 14 0 25 5 25 10 0 6 7
10 16 10 8 0 22 6 29 14 8 7 34 20 59 27 26 7 46 17 46 21 0 4 11 8 25 8 14 0
25 5 25 10 0 6 15 10 33 10 17 1 43 7 57 15 14 8 35 14 48 15 12 0 22 5 22 10
0 6 16 10 35 10 19 0 35 5 35 10 0 6 20 10 45 10 25 0 45 5 45 10 0 6 17 10
38 10 20 0 60 7 87 14 28 8 60 15 73 15 l22 1 0 -1000z m-3755 -1990 c3 -5 15
-10 26 -10 10 0 19 -4 19 -10 0 -5 14 -10 30 -10 17 0 30 -4 30 -10 0 -5 11
-10 25 -10 14 0 25 -3 25 -7 0 -5 20 -17 45 -28 25 -11 45 -23 45 -27 0 -5 16
-8 35 -8 19 0 35 -4 35 -10 0 -5 9 -10 20 -10 11 0 20 -4 20 -8 0 -4 23 -16
50 -27 28 -11 50 -23 50 -27 0 -4 14 -8 30 -8 17 0 30 -4 30 -10 0 -5 9 -10
20 -10 11 0 20 -4 20 -8 0 -4 23 -16 50 -27 28 -11 50 -23 50 -27 0 -4 14 -8
30 -8 17 0 30 -4 30 -10 0 -5 6 -10 12 -10 16 0 122 -53 126 -62 2 -5 17 -8
33 -8 16 0 29 -4 29 -10 0 -5 11 -10 25 -10 14 0 25 -3 25 -7 0 -5 20 -17 45
-28 25 -11 45 -23 45 -27 0 -5 16 -8 35 -8 19 0 35 -4 35 -10 0 -5 9 -10 20
-10 11 0 20 -4 20 -8 0 -4 23 -16 50 -27 28 -11 50 -23 50 -27 0 -4 14 -8 30
-8 17 0 30 -4 30 -10 0 -5 9 -10 20 -10 11 0 20 -4 20 -8 0 -4 23 -16 50 -27
28 -11 50 -23 50 -27 0 -4 14 -8 30 -8 17 0 30 -4 30 -10 0 -5 6 -10 12 -10
16 0 122 -53 126 -62 2 -5 17 -8 33 -8 16 0 29 -4 29 -10 0 -5 11 -10 25 -10
14 0 25 -3 25 -7 0 -5 20 -17 45 -28 25 -11 45 -23 45 -27 0 -5 14 -8 30 -8
17 0 30 -4 30 -10 0 -5 11 -10 25 -10 14 0 25 -4 25 -8 0 -4 23 -16 50 -27 28
-11 50 -23 50 -27 0 -4 14 -8 30 -8 17 0 30 -4 30 -10 0 -5 9 -10 20 -10 11 0
20 -4 20 -8 0 -4 23 -16 50 -27 28 -11 50 -23 50 -27 0 -4 14 -8 30 -8 17 0
30 -4 30 -10 0 -5 6 -10 14 -10 7 0 34 -11 60 -25 26 -14 56 -25 67 -25 10 0
19 -4 19 -10 0 -5 9 -10 20 -10 11 0 20 -4 20 -10 0 -5 11 -10 24 -10 13 0 26
-3 28 -7 4 -11 75 -43 93 -43 8 0 15 -4 15 -10 0 -5 11 -10 25 -10 14 0 25 -4
25 -10 0 -5 9 -10 19 -10 11 0 21 -3 23 -7 4 -11 75 -43 93 -43 8 0 15 -4 15
-10 0 -5 11 -10 25 -10 14 0 25 -4 25 -10 0 -5 6 -10 14 -10 8 0 34 -11 57
-25 24 -14 52 -25 62 -25 9 0 17 -4 17 -10 0 -5 11 -10 25 -10 14 0 25 -4 25
-10 0 -5 11 -10 25 -10 14 0 25 -4 25 -9 0 -5 12 -11 28 -14 43 -9 102 -31
102 -39 0 -5 20 -8 45 -8 25 0 45 -4 45 -10 0 -5 16 -10 35 -10 19 0 35 -4 35
-10 0 -5 15 -10 33 -10 17 -1 50 -7 72 -15 22 -8 59 -15 83 -15 23 0 42 -4 42
-10 0 -6 38 -10 95 -10 57 0 95 -4 95 -10 0 -6 75 -10 205 -10 130 0 205 4
205 10 0 6 40 10 100 10 60 0 100 4 100 10 0 6 19 10 43 10 23 0 60 7 82 15
22 8 55 14 73 15 17 0 32 5 32 10 0 6 16 10 35 10 19 0 35 5 35 10 0 6 20 10
45 10 25 0 45 4 45 8 0 4 29 17 65 27 36 11 65 23 65 28 0 4 11 7 25 7 14 0
25 5 25 10 0 6 11 10 25 10 14 0 25 5 25 10 0 6 7 10 15 10 18 0 89 32 93 43
2 4 12 7 23 7 10 0 19 5 19 10 0 6 14 10 30 10 17 0 30 4 30 8 0 4 23 16 50
27 28 11 50 23 50 27 0 4 11 8 25 8 14 0 25 5 25 10 0 6 14 10 30 10 17 0 30
3 30 8 0 4 20 16 45 27 25 11 45 23 45 28 0 4 11 7 25 7 14 0 25 5 25 10 0 6
13 10 29 10 16 0 31 3 33 8 4 9 110 62 126 62 6 0 12 5 12 10 0 6 14 10 30 10
17 0 30 4 30 8 0 4 23 16 50 27 28 11 50 23 50 27 0 4 9 8 20 8 11 0 20 5 20
10 0 6 14 10 30 10 17 0 30 4 30 8 0 4 23 16 50 27 28 11 50 23 50 27 0 4 11
8 25 8 14 0 25 5 25 10 0 6 14 10 30 10 17 0 30 3 30 8 0 4 20 16 45 27 25 11
45 23 45 28 0 4 11 7 25 7 14 0 25 5 25 10 0 6 13 10 29 10 16 0 31 3 33 8 4
9 110 62 126 62 6 0 12 5 12 10 0 6 14 10 30 10 17 0 30 4 30 8 0 4 23 16 50
27 28 11 50 23 50 27 0 4 9 8 20 8 11 0 20 5 20 10 0 6 14 10 30 10 17 0 30 4
30 8 0 4 23 16 50 27 28 11 50 23 50 27 0 4 11 8 25 8 14 0 25 5 25 10 0 6 13
10 29 10 16 0 31 4 33 8 3 9 113 62 128 62 6 0 10 5 10 10 0 6 14 10 30 10 17
0 30 3 30 8 0 4 32 21 70 37 38 17 70 33 70 38 0 4 14 7 30 7 17 0 30 5 30 10
0 6 4 10 10 10 15 0 125 53 128 62 2 4 17 8 33 8 16 0 29 4 29 8 0 4 23 16 50
27 28 11 50 23 50 27 0 4 11 8 25 8 14 0 25 5 25 10 0 6 14 10 30 10 17 0 30
4 30 8 0 4 20 16 45 26 25 11 45 23 45 28 0 4 11 8 25 8 14 0 25 5 25 10 0 6
14 10 30 10 17 0 30 5 30 10 0 6 9 10 19 10 11 0 23 5 26 10 14 23 135 3 135
-22 0 -4 5 -8 11 -8 16 0 39 -26 39 -44 0 -9 5 -16 10 -16 6 0 10 -83 10 -230
0 -147 -4 -230 -10 -230 -5 0 -10 -13 -10 -29 0 -17 -11 -51 -25 -77 -14 -26
-25 -52 -25 -58 0 -6 -9 -18 -20 -26 -11 -8 -20 -19 -20 -25 -1 -14 -57 -75
-70 -75 -6 0 -24 -13 -40 -30 -16 -16 -40 -32 -54 -36 -14 -3 -26 -10 -26 -15
0 -5 -9 -9 -20 -9 -11 0 -20 -4 -20 -10 0 -5 -7 -10 -15 -10 -18 0 -89 -32
-93 -42 -2 -5 -15 -8 -28 -8 -13 0 -24 -4 -24 -10 0 -5 -9 -10 -20 -10 -11 0
-20 -4 -20 -10 0 -5 -7 -10 -17 -10 -22 0 -93 -32 -93 -42 0 -4 -11 -8 -25 -8
-14 0 -25 -4 -25 -10 0 -5 -11 -10 -25 -10 -14 0 -25 -4 -25 -10 0 -5 -8 -10
-17 -10 -10 0 -38 -11 -62 -25 -23 -14 -49 -25 -57 -25 -8 0 -14 -4 -14 -10 0
-5 -11 -10 -25 -10 -14 0 -25 -4 -25 -10 0 -5 -7 -10 -15 -10 -18 0 -89 -32
-93 -42 -2 -5 -12 -8 -23 -8 -10 0 -19 -4 -19 -10 0 -5 -11 -10 -25 -10 -14 0
-25 -4 -25 -10 0 -5 -7 -10 -15 -10 -18 0 -89 -32 -93 -42 -2 -5 -15 -8 -28
-8 -13 0 -24 -4 -24 -10 0 -5 -9 -10 -20 -10 -11 0 -20 -4 -20 -10 0 -5 -9
-10 -20 -10 -24 0 -90 -31 -90 -42 0 -4 -11 -8 -25 -8 -14 0 -25 -4 -25 -10 0
-5 -11 -10 -25 -10 -14 0 -25 -4 -25 -10 0 -5 -8 -10 -17 -10 -10 0 -38 -11
-62 -25 -23 -14 -49 -25 -57 -25 -8 0 -14 -4 -14 -10 0 -5 -11 -10 -25 -10
-14 0 -25 -4 -25 -10 0 -5 -7 -10 -15 -10 -18 0 -89 -32 -93 -42 -2 -5 -12 -8
-23 -8 -10 0 -19 -4 -19 -10 0 -5 -11 -10 -25 -10 -14 0 -25 -4 -25 -10 0 -5
-7 -10 -15 -10 -18 0 -89 -32 -93 -42 -2 -5 -15 -8 -28 -8 -13 0 -24 -4 -24
-10 0 -5 -9 -10 -20 -10 -11 0 -20 -4 -20 -10 0 -5 -7 -10 -17 -10 -22 0 -93
-32 -93 -42 0 -4 -11 -8 -25 -8 -14 0 -25 -4 -25 -10 0 -5 -11 -10 -25 -10
-14 0 -25 -4 -25 -10 0 -5 -8 -10 -17 -10 -10 0 -38 -11 -62 -25 -23 -14 -49
-25 -57 -25 -8 0 -14 -4 -14 -10 0 -5 -11 -10 -25 -10 -14 0 -25 -4 -25 -10 0
-5 -7 -10 -15 -10 -18 0 -89 -32 -93 -42 -2 -5 -12 -8 -23 -8 -10 0 -19 -4
-19 -10 0 -5 -11 -10 -25 -10 -14 0 -25 -4 -25 -10 0 -5 -7 -10 -15 -10 -18 0
-89 -32 -93 -42 -2 -5 -15 -8 -28 -8 -13 0 -24 -4 -24 -10 0 -5 -9 -10 -20
-10 -11 0 -20 -4 -20 -10 0 -5 -7 -10 -17 -10 -22 0 -93 -32 -93 -42 0 -4 -11
-8 -25 -8 -14 0 -25 -4 -25 -10 0 -5 -11 -10 -25 -10 -14 0 -25 -4 -25 -10 0
-5 -7 -10 -15 -10 -18 0 -89 -32 -93 -42 -2 -5 -12 -8 -23 -8 -10 0 -19 -4
-19 -10 0 -5 -16 -10 -35 -10 -19 0 -35 -3 -35 -8 0 -8 -59 -30 -102 -39 -16
-3 -28 -9 -28 -14 0 -5 -16 -9 -35 -9 -19 0 -35 -4 -35 -10 0 -5 -20 -10 -45
-10 -25 0 -45 -4 -45 -9 0 -5 -17 -11 -37 -14 -44 -6 -124 -24 -169 -38 -17
-5 -58 -9 -92 -9 -35 0 -62 -4 -62 -10 0 -6 -97 -10 -270 -10 -173 0 -270 4
-270 10 0 6 -27 10 -62 10 -34 0 -75 4 -92 9 -45 14 -125 32 -168 38 -21 3
-38 9 -38 14 0 5 -20 9 -45 9 -25 0 -45 5 -45 10 0 6 -16 10 -35 10 -19 0 -35
3 -35 8 0 4 -29 16 -65 27 -36 10 -65 23 -65 27 0 4 -11 8 -25 8 -14 0 -25 5
-25 10 0 6 -13 10 -30 10 -16 0 -30 4 -30 8 0 4 -22 16 -50 27 -27 11 -50 23
-50 27 0 4 -13 8 -30 8 -16 0 -30 5 -30 10 0 6 -6 10 -12 10 -16 0 -122 53
-126 63 -2 4 -17 7 -33 7 -16 0 -29 5 -29 10 0 6 -11 10 -25 10 -14 0 -25 3
-25 8 0 4 -20 16 -45 27 -25 11 -45 23 -45 27 0 5 -13 8 -30 8 -16 0 -30 5
-30 10 0 6 -11 10 -25 10 -14 0 -25 4 -25 8 0 4 -22 16 -50 27 -27 11 -50 23
-50 27 0 4 -13 8 -30 8 -16 0 -30 5 -30 10 0 6 -9 10 -20 10 -11 0 -20 4 -20
8 0 4 -22 16 -50 27 -27 11 -50 23 -50 27 0 4 -13 8 -30 8 -16 0 -30 5 -30 10
0 6 -6 10 -12 10 -16 0 -122 53 -126 63 -2 4 -17 7 -33 7 -16 0 -29 5 -29 10
0 6 -11 10 -25 10 -14 0 -25 3 -25 8 0 4 -20 16 -45 27 -25 11 -45 23 -45 27
0 5 -13 8 -30 8 -16 0 -30 5 -30 10 0 6 -11 10 -25 10 -14 0 -25 4 -25 8 0 4
-22 16 -50 27 -27 11 -50 23 -50 27 0 4 -13 8 -30 8 -16 0 -30 5 -30 10 0 6
-9 10 -20 10 -11 0 -20 4 -20 8 0 4 -22 16 -50 27 -27 11 -50 23 -50 27 0 4
-13 8 -30 8 -16 0 -30 5 -30 10 0 6 -6 10 -12 10 -16 0 -122 53 -126 63 -2 4
-17 7 -33 7 -16 0 -29 5 -29 10 0 6 -11 10 -25 10 -14 0 -25 3 -25 8 0 4 -20
16 -45 27 -25 11 -45 23 -45 27 0 5 -13 8 -30 8 -16 0 -30 5 -30 10 0 6 -11
10 -25 10 -14 0 -25 4 -25 8 0 4 -22 16 -50 27 -27 11 -50 23 -50 27 0 4 -13
8 -30 8 -16 0 -30 5 -30 10 0 6 -9 10 -20 10 -11 0 -20 4 -20 8 0 4 -22 16
-50 27 -27 11 -50 23 -50 27 0 4 -13 8 -30 8 -16 0 -30 5 -30 10 0 6 -6 10
-12 10 -16 0 -122 53 -126 63 -2 4 -17 7 -33 7 -16 0 -29 5 -29 10 0 6 -11 10
-25 10 -14 0 -25 3 -25 8 0 4 -20 15 -45 25 -25 11 -45 23 -45 28 0 5 -13 9
-30 9 -16 0 -30 5 -30 10 0 6 -7 10 -15 10 -8 0 -15 5 -15 10 0 6 -8 10 -19
10 -10 0 -27 11 -37 25 -10 14 -24 25 -32 25 -14 0 -71 60 -72 75 0 6 -9 17
-20 25 -11 8 -20 20 -20 26 0 6 -11 32 -25 58 -14 26 -25 60 -25 77 0 16 -4
29 -10 29 -6 0 -10 83 -10 230 0 147 4 230 10 230 6 0 10 7 10 16 0 18 23 44
39 44 6 0 11 4 11 8 0 25 121 44 135 22z"/>
<path d="M9058 11663 c-38 -2 -68 -8 -68 -13 0 -6 -20 -10 -45 -10 -25 0 -45
-4 -45 -10 0 -5 -11 -10 -25 -10 -14 0 -25 -4 -25 -9 0 -5 -13 -12 -29 -16
-15 -3 -38 -15 -49 -25 -12 -11 -28 -20 -37 -20 -8 0 -15 -4 -15 -10 0 -5 -5
-10 -11 -10 -11 0 -39 -24 -39 -34 0 -3 -16 -23 -35 -43 -19 -20 -35 -47 -35
-60 0 -13 -4 -23 -10 -23 -5 0 -10 -20 -10 -45 0 -25 5 -45 10 -45 6 0 10 -10
10 -23 0 -12 11 -34 25 -49 14 -15 25 -30 25 -33 0 -10 69 -75 80 -75 5 0 10
-4 10 -10 0 -5 9 -10 19 -10 11 0 21 -3 23 -7 4 -11 75 -43 93 -43 8 0 15 -4
15 -10 0 -5 20 -10 45 -10 25 0 45 -4 45 -9 0 -9 134 -24 220 -24 86 0 220 15
220 24 0 5 18 9 40 9 22 0 40 5 40 10 0 6 10 10 23 10 12 0 42 11 66 25 23 14
48 25 55 25 6 0 18 9 26 20 8 11 20 20 27 20 7 0 13 4 13 9 0 5 9 13 20 16 11
3 20 14 20 23 0 10 9 24 20 32 11 8 23 29 26 47 3 18 10 33 15 33 25 0 -11
141 -43 171 -10 9 -18 20 -18 25 0 5 -12 18 -27 29 -15 11 -37 30 -49 43 -13
12 -27 22 -33 22 -5 0 -29 11 -52 25 -24 14 -54 25 -66 25 -13 0 -23 5 -23 10
0 6 -20 10 -44 10 -24 0 -46 4 -48 9 -3 10 -249 20 -350 14z"/>
</g>
</svg>
